{
  "asset": {
    "version": "2.0"
  },
  "extensionsUsed": [],
  "buffers": [
    {
      "uri": "data:application/octet-stream;base64,",
      "byteLength": 12324
    }
  ],
  "bufferViews": [
    {
      "buffer": 0,
      "byteOffset": 0,
      "byteLength": 2844,
      "target": 34962
    },
    {
      "buffer": 0,
      "byteOffset": 2844,
      "byteLength": 948,
      "target": 34963
    },
    {
      "buffer": 0,
      "byteOffset": 3792,
      "byteLength": 3792,
      "target": 34962
    },
    {
      "buffer": 0,
      "byteOffset": 7584,
      "byteLength": 1896,
      "target": 34962
    },
    {
      "buffer": 0,
      "byteOffset": 9480,
      "byteLength": 2844,
      "target": 34962
    }
  ],
  "accessors": [
    {
      "bufferView": 0,
      "byteOffset": 0,
      "componentType": 5126,
      "count": 237,
      "type": "VEC3",
      "min": [
        -37.0,
        0.0,
        -58.0
      ],
      "max": [
        19.0,
        12.0,
        44.0
      ]
    },
    {
      "bufferView": 1,
      "byteOffset": 0,
      "componentType": 5125,
      "count": 237,
      "type": "SCALAR"
    },
    {
      "bufferView": 2,
      "byteOffset": 0,
      "componentType": 5126,
      "count": 237,
      "type": "VEC4"
    },
    {
      "bufferView": 3,
      "byteOffset": 0,
      "componentType": 5126,
      "count": 237,
      "type": "VEC2"
    },
    {
      "bufferView": 4,
      "byteOffset": 0,
      "componentType": 5126,
      "count": 237,
      "type": "VEC3"
    }
  ],
  "materials": [
    {
      "pbrMetallicRoughness": {
        "metallicFactor": 0.0,
        "roughnessFactor": 1.0
      },
      "doubleSided": true,
      "alphaMode": "OPAQUE",
      "alphaCutoff": 0.5
    }
  ],
  "meshes": [
    {
      "primitives": [
        {
          "attributes": {
            "POSITION": 0,
            "COLOR_0": 2,
            "TEXCOORD_0": 3,
            "NORMAL": 4
          },
          "indices": 1,
          "material": 0
        }
      ]
    }
  ],
  "nodes": [
    {
      "mesh": 0,
      "translation": [
        0.0,
        0.0,
        0.0
      ],
      "scale": [
        1.0,
        1.0,
        1.0
      ]
    }
  ],
  "scenes": [
    {
      "nodes": [
        0
      ]
    }
  ],
  "scene": 0
}