{
  "asset": {
    "version": "2.0"
  },
  "extensionsUsed": [],
  "buffers": [
    {
      "uri": "data:application/octet-stream;base64,",
      "byteLength": 143364
    }
  ],
  "bufferViews": [
    {
      "buffer": 0,
      "byteOffset": 0,
      "byteLength": 33084,
      "target": 34962
    },
    {
      "buffer": 0,
      "byteOffset": 33084,
      "byteLength": 11028,
      "target": 34963
    },
    {
      "buffer": 0,
      "byteOffset": 44112,
      "byteLength": 44112,
      "target": 34962
    },
    {
      "buffer": 0,
      "byteOffset": 88224,
      "byteLength": 22056,
      "target": 34962
    },
    {
      "buffer": 0,
      "byteOffset": 110280,
      "byteLength": 33084,
      "target": 34962
    }
  ],
  "accessors": [
    {
      "bufferView": 0,
      "byteOffset": 0,
      "componentType": 5126,
      "count": 2757,
      "type": "VEC3",
      "min": [
        -162.0,
        0.0,
        -116.0
      ],
      "max": [
        153.0,
        197.0,
        180.0
      ]
    },
    {
      "bufferView": 1,
      "byteOffset": 0,
      "componentType": 5125,
      "count": 2757,
      "type": "SCALAR"
    },
    {
      "bufferView": 2,
      "byteOffset": 0,
      "componentType": 5126,
      "count": 2757,
      "type": "VEC4"
    },
    {
      "bufferView": 3,
      "byteOffset": 0,
      "componentType": 5126,
      "count": 2757,
      "type": "VEC2"
    },
    {
      "bufferView": 4,
      "byteOffset": 0,
      "componentType": 5126,
      "count": 2757,
      "type": "VEC3"
    }
  ],
  "materials": [
    {
      "pbrMetallicRoughness": {
        "metallicFactor": 0.0,
        "roughnessFactor": 1.0
      },
      "doubleSided": true,
      "alphaMode": "OPAQUE",
      "alphaCutoff": 0.5
    }
  ],
  "meshes": [
    {
      "primitives": [
        {
          "attributes": {
            "POSITION": 0,
            "COLOR_0": 2,
            "TEXCOORD_0": 3,
            "NORMAL": 4
          },
          "indices": 1,
          "material": 0
        }
      ]
    }
  ],
  "nodes": [
    {
      "mesh": 0,
      "translation": [
        0.0,
        0.0,
        0.0
      ],
      "scale": [
        1.0,
        1.0,
        1.0
      ]
    }
  ],
  "scenes": [
    {
      "nodes": [
        0
      ]
    }
  ],
  "scene": 0
}